<?xml version="1.0" encoding="utf-8"?>
<!-- Generator: Adobe Illustrator 16.0.3, SVG Export Plug-In . SVG Version: 6.00 Build 0)  -->
<!DOCTYPE svg PUBLIC "-//W3C//DTD SVG 1.1//EN" "http://www.w3.org/Graphics/SVG/1.1/DTD/svg11.dtd">
<svg version="1.1" id="_x32_" xmlns="http://www.w3.org/2000/svg" xmlns:xlink="http://www.w3.org/1999/xlink" x="0px" y="0px"
	 width="800px" height="800px" viewBox="0 0 800 800" enable-background="new 0 0 800 800" xml:space="preserve">
<g>
	<path fill="#FFFFFF" d="M720.273,33.95c-19.727,0-35.742,16.016-35.742,35.742c0,11.523,5.494,21.753,13.989,28.295
		c-3.491,8.155-7.813,17.627-13.038,28.15c-9.277,18.58-21.41,40.333-36.816,63.403c-7.422-4.028-15.504-6.983-24.049-8.545
		c-1.294-28.614-5.029-58.106-8.764-82.056c-0.929-5.981-1.856-11.622-2.76-16.822c11.401-5.981,19.214-17.896,19.214-31.666
		c0-19.727-16.016-35.742-35.742-35.742c-19.751,0-35.742,16.016-35.742,35.742c0,18.458,14.015,33.667,32.007,35.547
		c1.001,5.762,2.026,12.109,3.051,18.848c3.442,22.364,6.763,49.268,8.008,75.074c-23.754,1.783-44.556,13.842-58.105,31.616
		c-26.489-68.824-90.015-120.802-164.356-129.127C273.37,70.3,176.592,153.967,165.241,269.298
		c-4.2,42.7,3.931,83.741,21.289,119.116c-62.452,7.397-113.892,60.303-120.728,129.736
		c-7.861,80.126,47.022,148.34,121.655,160.303c33.203,5.299,65.65,1.294,96.728-9.57c-15.795,12.279-32.227,24.023-49.292,34.986
		c-20.533,13.207-26.489,40.551-13.281,61.107c13.208,20.533,40.552,26.489,61.084,13.281
		c55.737-35.841,104.64-77.979,146.974-121.85c63.55-65.869,112.427-135.694,147.436-195.216
		c17.505-29.786,31.544-57.007,42.213-80.078c5.321-11.523,9.839-22.022,13.501-31.42c1.905-4.786,3.564-9.278,5.054-13.501
		c31.445-11.572,53.614-42.091,52.856-77.491c-0.489-22.535-10.182-42.7-25.366-57.031c16.406-24.513,29.272-47.583,39.015-67.212
		c5.395-10.889,9.839-20.703,13.428-29.175c0.83,0.074,1.636,0.122,2.466,0.122c19.727,0,35.717-15.991,35.717-35.717
		S740,33.95,720.273,33.95z"/>
</g>
</svg>
